<?xml version="1.0" standalone="no"?><svg xmlns="http://www.w3.org/2000/svg" viewBox="0 0 1440 320"><path fill="#8E5D52" fill-opacity="1" d="M0,160L17.1,176C34.3,192,69,224,103,208C137.1,192,171,128,206,112C240,96,274,128,309,138.7C342.9,149,377,139,411,138.7C445.7,139,480,149,514,160C548.6,171,583,181,617,165.3C651.4,149,686,107,720,101.3C754.3,96,789,128,823,117.3C857.1,107,891,53,926,80C960,107,994,213,1029,234.7C1062.9,256,1097,192,1131,176C1165.7,160,1200,192,1234,208C1268.6,224,1303,224,1337,202.7C1371.4,181,1406,139,1423,117.3L1440,96L1440,320L1422.9,320C1405.7,320,1371,320,1337,320C1302.9,320,1269,320,1234,320C1200,320,1166,320,1131,320C1097.1,320,1063,320,1029,320C994.3,320,960,320,926,320C891.4,320,857,320,823,320C788.6,320,754,320,720,320C685.7,320,651,320,617,320C582.9,320,549,320,514,320C480,320,446,320,411,320C377.1,320,343,320,309,320C274.3,320,240,320,206,320C171.4,320,137,320,103,320C68.6,320,34,320,17,320L0,320Z"></path></svg>